<?xml version="1.0" encoding="UTF-8"?>
<!-- Created with Inkscape by VulcanSphere (https://www.inkscape.org/ and https://vulcansphere.com) -->
<svg id="svg1" width="173.04mm" height="62.496mm" version="1.1" viewBox="0 0 173.04 62.496" xmlns="http://www.w3.org/2000/svg" xmlns:xlink="http://www.w3.org/1999/xlink">
<title id="title1">Jujutsu Kaisen (Japanese)</title>
<desc id="desc1">Dark fantasy animanga by Gege Akutami</desc>
 <defs id="defs1">
  <linearGradient id="linearGradient1">
   <stop id="stop1" offset="0"/>
   <stop id="stop2" stop-color="#f00" offset="1"/>
  </linearGradient>
  <linearGradient id="linearGradient2" x1="43.852" x2="66.493" y1="116.2" y2="138.53" gradientUnits="userSpaceOnUse" xlink:href="#linearGradient1"/>
  <linearGradient id="linearGradient3" x1="247.48" x2="286.56" y1="-62.024" y2="18.936" gradientTransform="matrix(.26458 0 0 .26458 7.5773 133.34)" gradientUnits="userSpaceOnUse" xlink:href="#linearGradient1"/>
  <linearGradient id="linearGradient4" x1="420.59" x2="458.12" y1="-60.74" y2="56.85" gradientTransform="matrix(.26458 0 0 .26458 8.4237 132.68)" gradientUnits="userSpaceOnUse" xlink:href="#linearGradient1"/>
  <linearGradient id="linearGradient5" x1="608.06" x2="653.65" y1="-28.922" y2="19.317" gradientTransform="matrix(.26458 0 0 .26458 7.8379 134.67)" gradientUnits="userSpaceOnUse" xlink:href="#linearGradient1"/>
 </defs>
 <g id="layer1" transform="translate(-14.059 -68.317)">
  <path id="path1" d="m50.227 127.24c-0.52585-0.93176-0.77458-1.935-0.94001-3.7915-0.0456-0.51223-0.19347-1.3123-0.32851-1.778-0.31986-1.1031-0.59744-3.8354-0.58487-5.7573 5e-3 -0.8382-0.0884-2.7051-0.20867-4.1487-0.12026-1.4436-0.22846-3.2724-0.24045-4.064-0.012-0.79163-0.0332-1.6325-0.0471-1.8685-0.0225-0.38166-2.1713-3.4521-2.6235-3.7488-0.0956-0.0627-0.43918-0.16382-0.76352-0.22466-0.32433-0.0608-0.99602-0.26266-1.4926-0.44846-0.7403-0.27698-0.98377-0.47576-1.3517-1.1036-0.41395-0.70634-0.45124-0.92926-0.48058-2.8729-0.0359-2.3783-0.15274-2.672-0.897-2.2553-0.45768 0.25626-0.46005 0.26744-0.54434 2.5688-0.0817 2.2312-0.10064 2.3281-0.54518 2.792-0.25327 0.26435-0.90097 0.70749-1.4393 0.98475-1.288 0.66335-3.5598 2.9207-4.1622 4.1357-0.25149 0.50723-0.45727 1.1678-0.45727 1.468 0 0.30015-0.10954 0.99004-0.24343 1.5331s-0.33222 1.9676-0.44073 3.1658-0.27184 2.4173-0.36296 2.7093c-0.21571 0.69127-0.43948 2.2843-0.64235 4.5727-0.0897 1.0123-0.2078 1.9811-0.26235 2.153-0.0546 0.17189-0.12117 0.9061-0.14803 1.6316-0.0331 0.89531-0.16608 1.5841-0.41382 2.1442-0.20074 0.45382-0.36499 1.0465-0.36499 1.317s-0.11041 0.75617-0.24536 1.0791c-0.34718 0.83091-0.9566 0.81179-1.5227-0.0478-0.40659-0.61731-0.41619-0.70339-0.34469-3.0903 0.04045-1.3504 0.1154-2.7982 0.16654-3.2173 0.08266-0.67736 0.48429-7.513 0.69644-11.853 0.14352-2.9362 0.47539-4.6478 1.1058-5.7033 0.76353-1.2783 2.6571-3.2782 4.208-4.4442l1.27-0.95485 0.0488-1.37c0.0546-1.5309 0.0174-1.5748-1.3376-1.5799-0.96088-4e-3 -2.6172-1.236-3.1891-2.373-0.62254-1.2374-0.70988-2.138-0.68903-7.1047 0.0396-9.4391 0.16415-11.363 0.76792-11.864 0.12104-0.10045 0.48499-0.22564 0.80879-0.27818 0.7749-0.12575 1.3042 0.368 1.3042 1.2167 0 0.75584 1.1699 4.3121 1.4209 4.3193 0.10327 3e-3 0.98787 0.0384 1.9658 0.0788 1.7264 0.0713 8.6057 0.15179 9.1706 0.10725 0.27919-0.022 0.6803-1.0878 0.89634-2.3817 0.14024-0.83985 0.53241-1.1964 1.3158-1.1964 1.3141 0 1.656 0.56217 1.656 2.7235 0 0.72508 0.10551 1.8377 0.23447 2.4724 0.1724 0.84858 0.22551 2.4091 0.20063 5.8954-0.0384 5.3771-0.0494 5.4325-1.3655 6.8395-1.0684 1.1423-1.726 1.4262-3.5569 1.5359l-1.524 0.0913 0.0289 0.82146c0.0522 1.4854 0.37679 1.8582 2.8119 3.2298 0.44481 0.25054 1.4017 1.0417 2.1264 1.7581 2.0138 1.9908 2.6256 2.9347 2.8213 4.3528 0.0641 0.46444 0.18248 1.1111 0.26309 1.4371 0.37085 1.4996 0.86394 13.902 0.6968 17.526-0.0921 1.9975-0.78816 3.81-1.4631 3.81-0.12405 0-0.46677-0.42742-0.7616-0.94983zm-8.7915-35.686c0.5222-0.12293 1.3604-0.20712 1.8627-0.18711 1.0476 0.0417 1.7436-0.19647 2.4285-0.83117 0.47827-0.44324 0.4806-0.45568 0.54942-2.9358 0.10858-3.913-0.30838-4.913-2.0179-4.8397-0.47144 0.0202-1.2463 0.17262-1.7219 0.33867-0.71085 0.24816-1.3169 0.29345-3.4048 0.25445-3.2117-0.06-3.8253 0.0243-4.4063 0.60526l-0.45688 0.45687 0.0644 2.8074c0.0539 2.35 0.11424 2.8835 0.37043 3.2745 0.42721 0.65201 1.2479 0.94481 2.6873 0.9587 0.67821 7e-3 1.3855 0.0774 1.5718 0.15744 0.4996 0.21468 1.4009 0.19302 2.4734-0.0594zm-23.445 20.584c-1.0662-0.3918-1.7345-1.0289-2.2419-2.1372-0.46546-1.0167-0.53508-2.3406-0.31692-6.0265 0.17531-2.962 0.16253-4.2966-0.06785-7.0863-0.17838-2.1601-0.22856-3.6327-0.35744-10.49-0.03816-2.0305 0.14048-2.4681 1.0793-2.6443 0.74297-0.13938 2.0345 0.4394 2.5463 1.1411 0.3179 0.43582 0.35402 0.76853 0.40899 3.7677 0.05327 2.9062 0.09274 3.2916 0.33867 3.3066 0.52991 0.0324 1.9755 0.0376 2.8607 0.0104 1.2043-0.0371 1.6445-0.45787 1.5107-1.444-0.1289-0.95008 0.18207-2.1034 0.64978-2.4099 0.26875-0.17609 0.59458-0.21536 1.1201-0.13501 0.92002 0.14066 1.2924 0.32534 1.8792 0.9319 0.57445 0.59382 0.70907 1.1124 0.58013 2.2345-0.0556 0.4839-0.17816 1.7341-0.27235 2.7783-0.09419 1.0442-0.24663 2.2253-0.33876 2.6247-0.27785 1.2045-0.22188 3.1018 0.09936 3.3684 0.23162 0.19224 0.25656 0.4433 0.15762 1.5871-0.10222 1.1816-0.11526 5.1108-0.02194 6.608 0.05003 0.8026-0.34879 1.9486-0.86685 2.4908-0.26143 0.27365-0.91752 0.76658-1.458 1.0954l-0.98266 0.59786-2.7427 0.0663c-2.3229 0.0561-2.8683 0.0201-3.5636-0.23539zm5.3312-4.6076c0.29056-0.3962 0.35332-1.137 0.30128-3.556-3e-3 -0.1397 0.0475-1.2065 0.11224-2.3707 0.14393-2.5884-0.10958-4.4298-0.68976-5.01-0.21047-0.21047-0.69679-0.47678-1.0807-0.5918-1.0433-0.31258-1.8455-0.0197-2.4345 0.88873-0.41868 0.6457-0.46523 0.86898-0.46896 2.2493-0.0023 0.84284-0.07279 1.8372-0.1567 2.2098-0.08391 0.37254-0.17711 1.4143-0.20713 2.3151-0.04926 1.4784-0.01941 1.6762 0.30657 2.032 0.19862 0.21682 0.40715 0.54662 0.4634 0.73288 0.17665 0.58504 0.93733 1.2692 1.4252 1.2819 0.25235 7e-3 0.61121 0.0792 0.79748 0.16139 0.58712 0.25916 1.3001 0.10944 1.6316-0.34262z" fill="url(#linearGradient2)" stroke="#fff" stroke-width=".92604" style="paint-order:stroke markers fill"/>
  <path id="path1-2" d="m74.815 129.59c-0.23624-0.29765-0.51194-1.2486-0.65045-2.2437-0.06482-0.46566-0.2153-1.1249-0.3344-1.4651-0.1191-0.34012-0.23484-1.2545-0.2572-2.032-0.05005-1.7404-0.04341-15.963 0.0092-19.786 0.08712-6.3271-5.29e-4 -16.078-0.14789-16.466-0.17118-0.45025-0.0155-0.42626-4.8428-0.74613-1.8965-0.12567-2.7844-0.52181-2.7912-1.2453-0.0024-0.26612 1.6439-1.1748 2.7538-1.5199 0.35198-0.10944 1.2283-0.18113 1.9473-0.15932 1.4255 0.04324 2.7142-0.19888 2.9381-0.55201 0.17753-0.28 0.16526-0.01439 0.20973-4.5421 0.0344-3.5032 0.06669-3.8714 0.40092-4.572 0.4886-1.0242 0.82555-1.4161 1.1203-1.303 0.1349 0.05177 0.48971 0.57568 0.78846 1.1642 0.29875 0.58856 0.72128 1.3749 0.93895 1.7474 0.35484 0.60727 0.41523 1.0189 0.5839 3.9793 0.14252 2.5014 0.24716 3.3474 0.43161 3.4893 0.13391 0.10301 0.92197 0.23852 1.7512 0.30112 0.82926 0.0626 1.9155 0.21719 2.414 0.34352 0.49841 0.12634 1.2872 0.2841 1.7529 0.35059 1.2084 0.17254 1.4393 0.33634 1.4393 1.0209 0 0.44589-0.10728 0.65334-0.45665 0.88304-0.48982 0.32205-2.0726 0.67529-3.6476 0.81407-0.53435 0.04708-1.168 0.16028-1.408 0.25156-0.24006 0.09127-0.77173 0.16595-1.1815 0.16595-0.56588 0-0.7876 0.07956-0.9221 0.33088-0.12057 0.22529-0.163 5.4808-0.13296 16.468 0.04463 16.321-7.94e-4 18.335-0.44835 19.862-0.13649 0.46567-0.28476 1.1896-0.32949 1.6087-0.04473 0.4191-0.19859 1.0668-0.34192 1.4393s-0.26394 0.99574-0.26802 1.3849c-8e-3 0.75721-0.33703 1.2398-0.84546 1.2398-0.16821 0-0.38144-0.0953-0.47384-0.21167zm-12.881-2.2748c-0.40514-0.16208-0.51782-0.83881-0.6478-3.8902-0.17794-4.1776-0.16127-6.6515 0.13242-19.651 0.02569-1.137-0.0081-2.1221-0.07522-2.1891-0.06705-0.0671-0.43264 0.0527-0.81242 0.26617-0.81559 0.45838-1.9944 0.79524-3.6105 1.0317-2.0678 0.30255-2.9493-0.33404-1.7489-1.263 0.91791-0.71027 3.0388-2.2554 3.937-2.8683 1.1654-0.79522 1.4509-1.1485 2.3442-2.9009 0.75308-1.4774 0.94767-2.1851 1.4898-5.4187 0.2428-1.4482 0.62387-2.1456 1.3723-2.5113 0.76566-0.37413 1.4419-0.26809 2.1638 0.33934 0.48071 0.40449 0.50394 0.4857 0.50394 1.7615 0 0.90779-0.14222 1.8686-0.44268 2.9906-0.24347 0.90921-0.50349 1.996-0.57781 2.4151-0.07432 0.4191-0.36232 1.2192-0.64 1.778-0.87176 1.7543-0.94175 2.1776-0.72584 4.3888 0.10634 1.089 0.14534 2.0577 0.08667 2.1526-0.05867 0.0949-0.12885 3.3999-0.15595 7.3444-0.0271 3.9444-0.09684 7.2487-0.15497 7.3428-0.05813 0.094-0.14144 0.84252-0.18512 1.6632-0.04369 0.82073-0.16792 1.6611-0.27606 1.8675-0.14829 0.28298-0.14874 0.43293-0.0019 0.60993 0.1325 0.15966 0.14499 0.39163 0.03905 0.72544-0.08566 0.26991-0.20188 0.88572-0.25827 1.3685-0.05639 0.48275-0.29012 1.3019-0.51939 1.8203-0.40848 0.92364-0.62777 1.0703-1.2364 0.8268zm27.765-0.72983c-0.33286-0.36443-0.57866-0.9186-0.77572-1.7489-0.75204-3.1686-1.0997-5.5157-1.1207-7.5655-0.01-0.9779-0.04929-2.0447-0.08728-2.3707-0.07238-0.6211-0.29793-10.381-0.26023-11.261 0.09154-2.1358 0.13745-8.7475 0.0639-9.2041l-0.09151-0.56808-2.3908 0.08328c-2.6128 0.09101-3.0904-5.29e-4 -4.0605-0.77718-1.0476-0.8389-0.99621-1.8511 0.13341-2.6251 0.49589-0.33979 0.79812-0.3928 2.4064-0.42206 3.7038-0.06739 11.617 0.23312 12.157 0.46164 0.70735 0.29958 1.1085 0.78843 1.2223 1.4895 0.1337 0.82392-0.49223 1.3132-1.699 1.328-0.47639 0.0058-1.4364 0.1011-2.1335 0.21167l-1.2673 0.20104-0.12101 0.67733c-0.13509 0.75617-0.16702 4.5727-0.10271 12.277 0.04817 5.7699-9e-3 11.752-0.12707 13.293-0.04283 0.5588-0.15471 1.8414-0.24864 2.8502-0.09392 1.0088-0.13604 1.8904-0.09358 1.9591 0.12114 0.196-0.51802 2.1118-0.72788 2.1818-0.10342 0.0345-0.40731-0.17738-0.6753-0.47079zm-6.9647-3.8904c-0.19686-0.27646-0.45887-0.98131-0.58224-1.5663-0.12338-0.58502-0.33975-1.3378-0.48083-1.6728-0.14108-0.33503-0.31152-1.0208-0.37875-1.524-0.06724-0.50318-0.26089-1.6007-0.43033-2.4389-0.16944-0.8382-0.35465-2.016-0.41156-2.6173-0.05691-0.6013-0.17596-1.4014-0.26454-1.778-0.18544-0.78836-0.79126-8.4732-0.915-11.607-0.10563-2.6749 0.10601-3.6464 0.91296-4.191 0.85071-0.5741 1.3847-0.49875 2.1035 0.29682 0.3368 0.3728 0.62195 0.81095 0.63365 0.97367 0.08699 1.2093 0.15643 3.5915 0.14104 4.8381-0.01013 0.82186 0.05946 2.1554 0.15467 2.9633 0.1991 1.6895 0.32015 3.9906 0.45587 8.6657 0.05272 1.8161 0.12998 3.4925 0.17168 3.7253 0.12041 0.67231 0.11351 6.0603-8e-3 6.2569-0.20742 0.33562-0.74447 0.17729-1.1021-0.32491zm-14.609 0.037c-0.35153-0.39424-0.53442-3.3769-0.28388-4.6297 0.1084-0.54201 0.16936-2.6444 0.14932-5.1493-0.04346-5.43-0.05192-4.7489 0.13401-10.789 0.15497-5.034 0.17345-5.2267 0.5764-6.0113 0.32712-0.63695 0.55235-0.85565 1.0514-1.0209 0.55844-0.18495 0.71536-0.16942 1.2996 0.12866 0.58215 0.29699 1.2896 1.1851 1.0973 1.3774-0.03778 0.03778-0.11232 1.8572-0.16564 4.0431-0.09149 3.7506-0.18505 5.2311-0.5989 9.4778-0.0953 0.9779-0.2468 3.1291-0.33667 4.7805-0.12994 2.3878-0.25434 3.3186-0.60755 4.5463-0.57174 1.9873-1.0064 2.9584-1.4694 3.2826-0.46767 0.32756-0.52363 0.32515-0.84607-0.0365zm-13.194-33.865c-0.32473-0.07288-0.5091-0.44869-0.38226-0.77921 0.04796-0.12498 0.40751-0.40519 0.79902-0.6227 1.3125-0.72917 3.0873-2.002 3.6999-2.6533 0.33387-0.35499 0.7947-0.81229 1.0241-1.0162 0.5539-0.49247 2.2965-3.881 2.5251-4.9101 0.09958-0.44831 0.24012-1.3866 0.31231-2.0851 0.19926-1.9281 0.65274-2.7828 1.7085-3.2201 0.64925-0.26893 1.5682 0.0383 2.0224 0.67614 0.38911 0.54646 0.43202 1.3437 0.16321 3.0325-0.09807 0.6161-0.26255 1.6536-0.36551 2.3055-0.13515 0.85574-0.48957 1.8095-1.2746 3.4301-1.1621 2.3991-2.1781 3.8152-3.2032 4.4646-1.3458 0.85256-1.5199 0.93926-2.2597 1.1253-0.75612 0.19008-4.2284 0.37407-4.7692 0.2527zm27.714-7.1491c-0.18627-0.07755-0.54756-0.36196-0.80288-0.63202-0.45348-0.47966-0.46482-0.54172-0.49029-2.6846-0.02445-2.0566 0.0078-2.2941 0.51632-3.8022 0.65329-1.9375 0.90904-2.3708 1.3338-2.2597 0.42676 0.1116 1.182 1.3127 1.474 2.3444 0.29194 1.0312 0.44212 5.5604 0.20696 6.2412-0.25394 0.73514-1.4008 1.1415-2.238 0.79298zm6.35-2.1963c-1.1643-0.2328-2.1557-1.1183-2.3063-2.0598-0.07789-0.48714-0.01077-0.65438 0.43187-1.0762 0.68256-0.65045 1.9999-0.80517 5.0071-0.58808 2.7324 0.19726 3.2853 0.28525 3.7752 0.6009 1.2069 0.77754 0.5636 2.4318-0.94685 2.4349-0.25174 5.29e-4 -0.72493 0.07519-1.0515 0.16593-0.90648 0.25184-3.417 0.67561-3.8935 0.6572-0.23283-9e-3 -0.69003-0.06968-1.016-0.13486z" fill="url(#linearGradient3)" stroke="#fff" stroke-width=".92604" style="paint-order:stroke markers fill"/>
  <path id="path1-20" d="m101.76 127.01c-0.37851-0.9059-0.62469-5.2691-0.50546-8.9585 0.20942-6.4804 0.34311-7.9832 0.85728-9.6366 0.14218-0.45718 0.25851-1.0378 0.25851-1.2903 0-0.25246 0.1524-0.93608 0.33866-1.5191 0.63541-1.989 0.46971-2.4113-1.0371-2.6433-0.89752-0.13818-2.2695-0.79851-2.4078-1.1589-0.24448-0.6371 0.41395-1.1474 1.7516-1.3575 1.2105-0.19014 2.5994-0.61497 2.914-0.89136 0.29132-0.2559 0.83499-1.6664 0.91457-2.3727 0.0658-0.58432 0.25332-1.1176 0.4914-1.3977 0.11875-0.1397 0.53815-0.8636 0.93199-1.6087s0.76439-1.3928 0.82344-1.4393c0.059-0.0466 0.50937-0.55502 1.0007-1.1299 0.49168-0.57527 1.2917-1.27 1.7793-1.5452 1.3297-0.75043 2.2699-1.8051 2.5896-2.9048 0.21815-0.75041 0.25342-1.4939 0.18484-3.8967-0.081-2.8383-0.21879-3.7355-0.61094-3.9778-0.0979-0.06051-1.0014-0.13516-2.0077-0.16587-1.0063-0.03072-2.2835-0.14516-2.8381-0.25431-3.906-0.76876-4.4813-0.98122-4.8503-1.7911-0.16456-0.36116-0.14456-0.46465 0.13045-0.67498 0.58688-0.44884 4.0547-1.1288 5.4895-1.0764 0.51223 0.01873 1.783-0.02828 2.8239-0.10445 1.7552-0.12843 1.9613-0.11061 2.8386 0.24547 1.1245 0.4564 1.5851 0.96347 2.3615 2.5996 0.52604 1.1085 0.57498 1.3387 0.52159 2.4537-0.0324 0.67671 9e-3 1.6461 0.0914 2.1542 0.19036 1.1696-0.0628 4.4078-0.43774 5.6-0.15428 0.49051-0.6335 1.5252-1.0649 2.2992-0.75136 1.3481-0.83602 1.4344-2.0089 2.049-0.9568 0.50134-1.4757 0.93177-2.3732 1.9687-0.63175 0.72988-1.2353 1.5079-1.3413 1.729-0.87153 1.8187-1.2417 2.7179-1.2417 3.016 0 0.38133 0.023 0.38577 1.8627 0.35903 1.577-0.0229 2.7274 0.34013 3.7254 1.1757 1.7859 1.4952 2.0102 2.2613 2.1074 7.1966 0.0385 1.9558 0.11939 3.6835 0.17972 3.8392 0.16571 0.42782 0.52194 0.51486 2.3695 0.57895 2.3475 0.0814 3.5961 0.21206 5.7573 0.60235 1.9672 0.35524 6.8372 1.839 9.1875 2.7992 2.318 0.94698 4.3889 2.5157 5.3973 4.0886 0.33889 0.52858 0.74439 1.1516 0.90111 1.3844 0.3573 0.53079 0.44815 0.76923 0.95772 2.5135 0.22701 0.77708 0.52763 1.635 0.66804 1.9065 0.18361 0.35507 0.20762 0.58272 0.0855 0.81088-0.41535 0.77609-1.1097 0.5036-1.709-0.67071-0.68547-1.343-3.0544-3.6468-4.8008-4.6689-0.56943-0.33324-1.0764-0.67121-1.1265-0.75104-0.11694-0.1861-2.9778-1.511-3.2627-1.511-0.11831 0-0.51405-0.1524-0.8794-0.33867-0.36535-0.18626-0.79253-0.33866-0.9493-0.33866-0.15676 0-0.8074-0.15317-1.4459-0.34036-3.0172-0.88466-3.6775-1.0305-5.7397-1.268-1.2145-0.13986-2.8702-0.25429-3.6794-0.25429-2.7903 0-4.5631-0.94588-5.3954-2.8787-0.37903-0.88026-0.40122-1.1263-0.40462-4.4873-3e-3 -3.3846-0.0222-3.5887-0.38887-4.2333-0.62868-1.1053-1.3973-1.505-3.0379-1.5798l-1.3984-0.0637-0.23498 0.56776c-0.12925 0.31227-0.32157 1.1314-0.42738 1.8203-0.10582 0.68892-0.24385 1.3358-0.30674 1.4376-0.18385 0.29748-0.52652 3.3514-0.71463 6.3692-0.22917 3.6761-0.72718 6.7138-1.8045 11.007-0.31552 1.2573-0.65899 2.4955-0.76325 2.7517-0.27455 0.6744-0.78364 0.608-1.0975-0.14313zm24.072-15.44c-0.0258-0.0259-0.8373-0.0527-1.8033-0.0595-1.4933-0.0105-1.8741-0.0721-2.5428-0.41093-0.90708-0.45965-1.7697-1.2656-1.9406-1.8131-0.065-0.20825-0.16871-0.41673-0.23049-0.4633-0.0618-0.0466-0.22975-0.54186-0.37325-1.1007-0.33639-1.31-0.29522-5.1444 0.10091-9.398 0.0564-0.60537 0.0133-2.2056-0.0957-3.556-0.11933-1.4781-0.20003-6.2791-0.20276-12.063-4e-3 -8.8416 0.0186-9.6333 0.28586-9.9286 0.28657-0.31666 0.85093-0.29782 1.6283 0.05437 0.592 0.26821 1.3089 1.4317 1.426 2.3143 0.0646 0.48706 0.19388 1.0283 0.28726 1.2028 0.0934 0.17449 0.2236 0.63241 0.28935 1.0176 0.0993 0.58169 0.20083 0.72207 0.59928 0.82863 0.51547 0.13786 6.6904 0.22526 11.791 0.16691 3.6105-0.0413 3.7574-0.09175 4.2817-1.4704 0.89538-2.3546 1.1212-2.5873 1.9482-2.008 0.77261 0.54116 1.1043 1.5352 1.2111 3.6295 0.0546 1.071 0.0421 2.4426-0.0277 3.048-0.0699 0.60537-0.14843 6.8919-0.17463 13.97-0.0516 13.936-2e-3 13.168-0.92757 14.229-0.57666 0.66066-1.951 1.5964-2.4777 1.6872-0.53851 0.0927-12.966 0.21041-13.053 0.12359zm11.707-4.5716c0.29717-0.21197 0.578-0.51677 0.62407-0.67733 0.11974-0.41735 0.20515-15.593 0.1141-20.273-0.0464-2.3869-0.19126-2.8675-1.0097-3.351-0.38167-0.22546-1.3909-0.26847-6.8774-0.29312-3.5365-0.01588-6.5222-0.02162-6.6349-0.01273-0.11265 0.0089-0.3881 0.21384-0.61213 0.45544-0.33918 0.3658-0.42631 0.68441-0.52095 1.905-0.0625 0.80615-0.11328 1.5419-0.11284 1.6351 5.3e-4 0.0931 0.029 3.4078 0.0634 7.366 0.0344 3.9582-2e-3 7.6266-0.0801 8.1521-0.0785 0.5255-0.16134 1.733-0.18409 2.6832-0.0412 1.7217-0.0397 1.7291 0.44657 2.1168 0.26837 0.21399 0.71576 0.45434 0.99421 0.53412 0.27845 0.0798 3.3735 0.14505 6.8779 0.14505 6.358 0 6.3727-7.9e-4 6.9119-0.3854zm-10.491-2.0268c-1.0391-0.58644-1.7472-1.3294-2.1422-2.2477-0.32563-0.75694-0.35121-1.2263-0.42556-7.8094-0.0975-8.6298-0.077-8.7518 1.5962-9.5194 0.70619-0.324 1.0467-0.34756 4.6485-0.32167 4.3712 0.0314 4.399 0.0387 5.1264 1.34 0.36905 0.6602 0.37304 0.72841 0.19217 3.287-0.25957 3.6719-0.27477 6.2238-0.0418 7.0155 0.12209 0.41483 0.18432 1.6289 0.16057 3.1327-0.0498 3.1526-0.29555 3.6951-2.2485 4.9637l-0.80998 0.52614-2.6691 0.0191c-2.5204 0.0181-2.709-3e-3 -3.3867-0.38587zm4.7922-3.8689c0.17873-0.17874 0.38175-0.6674 0.45115-1.0859 0.16508-0.9956 0.0521-9.6244-0.13235-10.11-0.41181-1.0832-1.5657-1.4879-2.744-0.9626-1.1457 0.51078-1.2614 0.75311-1.4072 2.9453-0.0712 1.071-0.12081 2.8878-0.11026 4.0372 0.0106 1.1494-0.0383 2.2451-0.10846 2.4349-0.16344 0.44183 0.22316 1.9447 0.61283 2.3822 0.49475 0.55555 1.2462 0.80782 2.2143 0.74336 0.60001-0.0399 1.0072-0.16795 1.224-0.38482z" fill="url(#linearGradient4)" stroke="#fff" stroke-width=".92604" style="paint-order:stroke markers fill"/>
  <path id="path1-7" d="m157.26 128.63c-0.13368-0.2585-0.28247-0.81095-0.33064-1.2277-0.0482-0.41671-0.20136-1.2367-0.3404-1.8222-0.13905-0.58551-0.21773-1.4422-0.17485-1.9038 0.0429-0.46157-7e-3 -1.1529-0.10972-1.5362-0.11595-0.43057-0.1824-2.3295-0.17387-4.9682 0.0129-3.9993-7e-3 -4.2899-0.30971-4.564-0.27678-0.25048-0.79704-0.30301-3.6007-0.36359-5.0202-0.10846-5.8593-0.23889-6.7908-1.0556-0.41591-0.36467-0.37037-1.0947 0.0956-1.5325 0.37402-0.35138 0.54605-0.36891 3.7677-0.3841 4.2238-0.0199 6.4238-0.1701 6.7118-0.45822 0.15356-0.15365 0.22-0.7783 0.22-2.0683 0-2.4753 0.0236-2.4529-2.5887-2.4529-1.5963 0-2.1074-0.0617-2.6195-0.31622-1.0393-0.51655-2.0876-1.678-2.4934-2.7626-0.39159-1.0466-0.40855-1.3939-0.3832-7.8432 7e-3 -1.723 9e-3 -3.7977 6e-3 -4.6104-8e-3 -1.7225 0.24193-2.3937 1.1053-2.9728 0.93934-0.63006 2.342-0.74615 9.3433-0.77321 6.5656-0.02537 6.6077-0.02331 7.4507 0.36541 0.94008 0.43349 1.5954 1.084 1.6372 1.6251 0.0272 0.35305 0.0472 1.5211 0.10568 6.1967 0.0557 4.4492-0.0743 8.0402-0.30688 8.4792-0.49811 0.94021-1.1085 1.5398-2.0891 2.0523-0.951 0.49699-1.1832 0.54541-2.7404 0.57145-2.1425 0.0358-2.3782 0.11265-2.6232 0.85495-0.20839 0.63143-0.0725 3.5519 0.17232 3.7032 0.16824 0.10397 4.9396 0.3332 5.9262 0.2847 1.1363-0.0559 1.092 0.0502 1.254-3.0042 0.0999-1.884 0.20972-2.2783 1.0026-3.5992 0.70873-1.1808 2.0622-2.1024 3.5044-2.3861 2.1595-0.42486 2.1466-0.38962 1.3254-3.634-0.0915-0.36137-0.20189-1.169-0.24536-1.7946-0.14498-2.0867-0.13089-2.0682-1.6323-2.137-1.589-0.07281-2.4003-0.50546-2.6832-1.4307-0.22552-0.73763 0.1556-1.8438 0.64512-1.8723 0.16773-0.0098 0.78976-0.03211 1.3823-0.04963 0.81726-0.02416 1.1312-0.10551 1.3004-0.33699 0.31458-0.43022 0.29962-5.9489-0.0217-8.0005-0.13324-0.85076-0.23538-1.8033-0.22698-2.1167 8e-3 -0.3134-0.0293-1.0098-0.0838-1.5475-0.17699-1.7463 0.67241-2.8303 2.2189-2.8316 0.87659-7.93e-4 1.2833 0.48831 1.5485 1.862 0.17153 0.88858 0.52855 8.4211 0.50265 10.605-0.0155 1.3086 0.12094 1.8568 0.49891 2.0045 0.16379 0.06397 1.2122 0.1478 2.3298 0.1863 2.4319 0.08379 4.5656 0.36905 5.2143 0.69716 0.68408 0.34596 0.9175 0.94512 0.57301 1.4709-0.26753 0.4083-1.3314 0.88932-1.5999 0.72338-0.0754-0.04661-0.97225 0.05988-1.993 0.23664-1.0207 0.17676-2.4877 0.32378-3.2599 0.32671l-1.4041 0.0053 0.0997 1.3123c0.0548 0.72178 0.16708 1.579 0.24942 1.905 0.0823 0.32597 0.24091 1.1642 0.35236 1.8627 0.11146 0.6985 0.26583 1.4378 0.34303 1.6429 0.21969 0.58358 1.0572 0.90746 2.577 0.99658 4.0862 0.23963 5.679 0.57751 6.1167 1.2975 0.39753 0.65395-0.68362 1.5205-1.971 1.5798-1.4566 0.067-5.526 0.54327-5.7324 0.67085-0.21487 0.1328-0.16108 0.4966 0.32444 2.1944 0.18644 0.65193 0.41144 1.4901 0.50002 1.8627 0.0886 0.37254 0.36094 1.3452 0.60526 2.1616 0.24432 0.81633 0.44422 1.5971 0.44422 1.735 0 0.13793 0.14977 0.68923 0.33282 1.2251 0.18305 0.53589 0.37507 1.241 0.4267 1.567 0.2719 1.7165 0.52832 2.555 1.2615 4.1251 0.44306 0.94883 0.90328 2.1325 1.0227 2.6303 0.11943 0.49784 0.85738 2.1724 1.6399 3.7212 1.1986 2.3725 1.3958 2.8761 1.2519 3.1971-0.11408 0.25437-0.31798 0.381-0.61351 0.381-0.77695 0-2.8922-2.3666-4.3253-4.8392-0.36538-0.63044-0.87142-1.591-2.3545-4.4693-0.35854-0.69584-0.77368-1.75-0.92255-2.3427-0.14886-0.59262-0.37407-1.2425-0.50046-1.4442-0.12638-0.20166-0.32076-0.78575-0.43194-1.298-0.20955-0.96543-0.30689-1.3336-0.86369-3.2665-0.18218-0.63241-0.48301-1.8897-0.66852-2.794-0.83374-4.0642-1.0312-4.43-2.2664-4.1983-0.68951 0.12936-1.7936 1.0878-1.7949 1.5582-5.3e-4 0.17527-0.0358 1.576-0.0785 3.1127s-0.10657 4.5466-0.14205 6.6887c-0.0674 4.0729-0.34115 8.0428-0.65376 9.4827-0.29039 1.3374-0.93457 1.814-1.5432 1.1415-0.14825-0.16382-0.46679-1.2497-0.70785-2.413-0.24107-1.1633-0.48514-2.3056-0.5424-2.5385-0.0572-0.23284-0.1224-0.88054-0.14477-1.4393-0.0223-0.5588-0.11817-1.8013-0.2129-2.7612-0.0947-0.95984-0.13258-2.0408-0.0841-2.4022 0.0485-0.36137 0.0378-0.99261-0.0237-1.4028l-0.11183-0.74573-3.5074 0.0702c-2.7742 0.0555-3.5604 0.12187-3.7614 0.31735-0.29831 0.29024-0.33487 1.9838-0.10564 4.8923 0.17044 2.1625 0.15503 3.1852-0.0587 3.8947-0.16712 0.55475-0.24108 1.1099-0.51339 3.8539-0.0994 1.0021-0.21255 1.9165-0.25136 2.032-0.0388 0.11554-0.11333 0.50472-0.16562 0.86484-0.12629 0.86975-0.19454 0.9539-0.77361 0.9539-0.36838 0-0.55535-0.11928-0.73671-0.47zm-1.43-27.75c0.25913-0.23451 0.30966-0.54616 0.30966-1.9097 0-2.3343-0.0615-2.3994-2.1667-2.296-0.9038 0.04441-1.7113 0.0813-1.7945 0.08198-0.084 7.94e-4 -0.10919 0.61411-0.0566 1.381 0.10955 1.5984 0.35972 2.0452 1.4755 2.6353 0.86199 0.45583 1.7979 0.50083 2.2327 0.10735zm7.0783-0.73242c0.84579-0.60226 1.2528-2.0839 0.91674-3.337-0.18736-0.69868-1.4919-0.91608-2.8074-0.46785-0.72164 0.24589-0.77651 0.30772-0.86846 0.97856-0.14799 1.0797 0.0506 2.7036 0.36075 2.95 0.42473 0.33744 1.8543 0.26372 2.3983-0.12366zm-7.0485-7.7915c0.27442-0.261 0.29783-0.45683 0.19096-1.5973-0.15852-1.6917-0.31881-1.8546-1.6725-1.6998-1.0544 0.12057-1.7655 0.38956-2.0805 0.78704-0.27767 0.35036-0.43781 2.4602-0.19799 2.6084 0.75589 0.46717 3.2336 0.40236 3.76-0.09835zm7.1798 0.10192c0.66756-0.01056 0.72638-0.04927 0.81812-0.53829 0.12058-0.64273-0.16421-1.7706-0.57528-2.2782-0.55859-0.68983-2.9521-0.83856-3.1519-0.19585-0.0487 0.15651-0.0778 0.96057-0.0649 1.7868l0.0236 1.5022 1.1155-0.13265c0.61353-0.07296 1.4392-0.13777 1.8348-0.14403zm-11.242-9.1201c-0.24817-0.39582-0.82062-1.1259-1.2721-1.6223-0.4515-0.49646-0.82091-0.96223-0.82091-1.035 0-0.07282-0.22406-0.41434-0.49791-0.75894-0.27385-0.34459-0.62683-1.0218-0.78441-1.505-0.15757-0.48313-0.34381-0.95462-0.41387-1.0478-0.21726-0.28882-0.36655-1.2451-0.25116-1.6086 0.14588-0.45963 1.7241-1.3511 2.3955-1.3531 0.82305-0.0024 1.4344 0.82934 2.0743 2.8224 1.0274 3.1997 1.4728 6.1517 0.9997 6.6248-0.42302 0.42302-0.96224 0.22814-1.4291-0.51647zm6.396-0.09775c-1.0449-1.101-2.2103-2.8105-2.6291-3.8564-0.21991-0.54934-0.56158-1.3671-0.75926-1.8172-0.19769-0.4501-0.35943-1.0303-0.35943-1.2892 0-0.5182 0.7172-1.3603 1.1661-1.3691 0.15029-3e-3 0.42116-0.11726 0.60194-0.254 0.49549-0.37477 1.0477-0.30078 1.6198 0.21705 0.55154 0.49924 0.56776 0.5512 1.5136 4.8479 0.63181 2.8703 0.65616 3.5447 0.14099 3.9055-0.52573 0.36824-0.60156 0.34572-1.2946-0.38448zm7.1522 0.09775c-0.18427-0.20955-0.53866-0.65931-0.78753-0.99947-0.24887-0.34016-0.75422-0.91166-1.123-1.27-0.43925-0.42682-0.91184-1.1937-1.3702-2.2236-0.81594-1.8332-0.97999-2.6023-0.67612-3.1701 0.24191-0.45202 1.8175-1.2691 2.4472-1.2691 0.46185 0 1.0672 0.67151 1.2079 1.3398 0.0507 0.24099 0.23513 0.78105 0.4098 1.2002 1.0484 2.5155 1.6168 5.6259 1.178 6.4458-0.23584 0.44068-0.87487 0.41411-1.286-0.05347zm16.758-0.75459c-0.28478-0.44646-0.65398-1.1762-0.82044-1.6216-0.16646-0.44543-0.36756-0.84997-0.44688-0.89899-0.0793-0.04902-0.14421-0.298-0.14421-0.55327 0-0.25528-0.0914-0.55558-0.2032-0.66734-0.11176-0.11176-0.14791-0.2032-0.0803-0.2032 0.0676 0 0.0117-0.21501-0.1242-0.4778-0.36489-0.70562-0.44517-2.3166-0.13734-2.7561 0.31861-0.45488 1.21-0.83008 1.9721-0.83008 0.95642 0 1.3831 0.61008 1.6266 2.326 0.25433 1.7917 0.28599 3.0428 0.11242 4.4428-0.26769 2.1593-0.88827 2.5977-1.7546 1.2396z" fill="url(#linearGradient5)" stroke="#fff" stroke-width=".92604" style="paint-order:stroke markers fill"/>
  <path id="text1" d="m147.08 69.518h0.3979v2.3729c0 0.22322 0.0413 0.3889 0.12405 0.49705 0.10143 0.12755 0.28244 0.19133 0.54302 0.19133 0.5992 0 1.0829-0.3279 1.4512-0.9837l0.28321 0.25996c-0.17476 0.30225-0.41116 0.54765-0.7092 0.73622-0.31832 0.20797-0.65848 0.31196-1.0205 0.31196-0.7131 0-1.0696-0.32652-1.0696-0.97954zm2.0761 1.0107c-0.17789-0.23432-0.34563-0.42218-0.50323-0.5636l0.24342-0.1643c0.18413 0.1539 0.35812 0.33553 0.52196 0.54488zm0.4845-0.33276c-0.16384-0.21629-0.3386-0.39653-0.52429-0.54072l0.24108-0.17469c0.20441 0.15529 0.3862 0.33137 0.54536 0.52824zm1.4816 0.20797c-0.0983 0.41594-0.1498 0.78821-0.15448 1.1168 0.27307-0.5227 0.71232-0.83119 1.3178-0.92547l-5e-3 -0.07279c-0.0156-0.14974-0.0296-0.28007-0.0421-0.39098h0.33002c0.0218 0.2149 0.0351 0.36533 0.0398 0.4513 0.28243 0.01663 0.51258 0.09359 0.69047 0.23085 0.22002 0.16499 0.33002 0.38474 0.33002 0.65927 0 0.2662-0.10064 0.4818-0.30193 0.64679-0.19817 0.15944-0.4494 0.23917-0.75368 0.23917-0.0312 0-0.0554-0.0015-0.0726-0.0042-0.10923 0.26898-0.3035 0.47902-0.58281 0.63015l-0.25513-0.20797c0.24498-0.10676 0.41741-0.26482 0.51727-0.47417-0.23874-0.06378-0.46577-0.20797-0.68111-0.43258l0.213-0.22669c0.14823 0.19272 0.33314 0.32513 0.55472 0.39722 0.039-0.20936 0.0585-0.44506 0.0585-0.7071 0-0.13726-6e-3 -0.29948-0.0187-0.48665-0.35109 0.06378-0.66785 0.2558-0.95028 0.57608-0.21066 0.23847-0.31598 0.46793-0.31598 0.68838 0 0.07903 0.0125 0.18717 0.0375 0.32444l-0.32535 0.03743c-0.064-0.33553-0.096-0.65719-0.096-0.96498 0-0.35771 0.0414-0.74731 0.12405-1.1688zm1.505 0.43466c0.0125 0.2149 0.0187 0.39376 0.0187 0.53656 0 0.23847-0.0226 0.47279-0.0679 0.70294 0.15916-0.0042 0.29648-0.03951 0.41195-0.10607 0.1888-0.11646 0.28321-0.28284 0.28321-0.49913 0-0.37157-0.21534-0.58301-0.64601-0.63431zm2.1206-1.3206h0.39791v2.3729c0 0.22322 0.0413 0.3889 0.12405 0.49705 0.10143 0.12755 0.28243 0.19133 0.54302 0.19133 0.59919 0 1.0829-0.3279 1.4512-0.9837l0.28321 0.25996c-0.17477 0.30225-0.41117 0.54765-0.7092 0.73622-0.31832 0.20797-0.65849 0.31196-1.0205 0.31196-0.71311 0-1.0697-0.32652-1.0697-0.97954zm2.0761 1.0107c-0.17788-0.23432-0.34562-0.42218-0.50322-0.5636l0.24342-0.1643c0.18412 0.1539 0.35811 0.33553 0.52195 0.54488zm0.48451-0.33276c-0.16384-0.21629-0.33861-0.39653-0.5243-0.54072l0.24109-0.17469c0.20441 0.15529 0.38619 0.33137 0.54535 0.52824zm1.4816 0.20797c-0.0983 0.41594-0.1498 0.78821-0.15448 1.1168 0.27306-0.5227 0.71232-0.83119 1.3178-0.92547l-5e-3 -0.07279c-0.0156-0.14974-0.0296-0.28007-0.0421-0.39098h0.33003c0.0218 0.2149 0.0351 0.36533 0.0398 0.4513 0.28243 0.01663 0.51259 0.09359 0.69047 0.23085 0.22002 0.16499 0.33003 0.38474 0.33003 0.65927 0 0.2662-0.10065 0.4818-0.30194 0.64679-0.19817 0.15944-0.44939 0.23917-0.75367 0.23917-0.0312 0-0.0554-0.0015-0.0726-0.0042-0.10923 0.26898-0.3035 0.47902-0.58281 0.63015l-0.25512-0.20797c0.24498-0.10676 0.4174-0.26482 0.51727-0.47417-0.23874-0.06378-0.46578-0.20797-0.68111-0.43258l0.21299-0.22669c0.14824 0.19272 0.33314 0.32513 0.55472 0.39722 0.039-0.20936 0.0585-0.44506 0.0585-0.7071 0-0.13726-6e-3 -0.29948-0.0187-0.48665-0.3511 0.06378-0.66786 0.2558-0.95029 0.57608-0.21065 0.23847-0.31598 0.46793-0.31598 0.68838 0 0.07903 0.0125 0.18717 0.0374 0.32444l-0.32534 0.03743c-0.064-0.33553-0.096-0.65719-0.096-0.96498 0-0.35771 0.0413-0.74731 0.12406-1.1688zm1.505 0.43466c0.0125 0.2149 0.0187 0.39376 0.0187 0.53656 0 0.23847-0.0226 0.47279-0.0679 0.70294 0.15916-0.0042 0.29648-0.03951 0.41195-0.10607 0.18881-0.11646 0.28321-0.28284 0.28321-0.49913 0-0.37157-0.21533-0.58301-0.646-0.63431zm1.718-0.42634c1.058-0.25511 1.8553-0.38266 2.3921-0.38266 0.36825 0 0.67019 0.08111 0.90581 0.24333 0.29023 0.19826 0.43535 0.47625 0.43535 0.83396 0 0.4506-0.23796 0.80416-0.71388 1.0607-0.42755 0.22877-1.0252 0.36672-1.7929 0.41386l-0.18725-0.33275c1.5276-0.05962 2.2914-0.4402 2.2914-1.1418 0-0.24679-0.0897-0.44159-0.26916-0.5844-0.16541-0.13033-0.39712-0.19549-0.69516-0.19549-0.53522 0-1.2678 0.13934-2.1978 0.41802zm4.5688 0.10399c0.38698-0.05269 0.74977-0.09705 1.0884-0.1331 0.0999-0.33553 0.17008-0.64332 0.21065-0.92339l0.37918 0.06239c-0.0702 0.32305-0.14044 0.60034-0.21066 0.83188l0.0749-0.0042c0.0874-0.0028 0.16775-0.0042 0.24108-0.0042 0.51494 0 0.7724 0.28215 0.7724 0.84644 0 0.55043-0.0928 0.99063-0.27853 1.3206-0.11079 0.19549-0.28477 0.29324-0.52195 0.29324-0.20597 0-0.42833-0.06378-0.66707-0.19133l0.0187-0.36187c0.24654 0.14696 0.44315 0.22045 0.58983 0.22045 0.12171 0 0.21455-0.05823 0.27853-0.17469 0.13419-0.26066 0.20129-0.63362 0.20129-1.1189 0-0.3688-0.13731-0.5532-0.41194-0.5532-0.0921 0-0.22158 0.0055-0.38854 0.01664-0.0546 0.19133-0.15058 0.44575-0.28789 0.76325-0.23874 0.55459-0.48685 1.017-0.74431 1.3872l-0.33003-0.18717c0.33861-0.4409 0.6343-0.99757 0.88709-1.67 0.0125-0.02773 0.0445-0.11092 0.096-0.24956-0.19817 0.0194-0.50323 0.06586-0.91517 0.13934zm3.7332 1.0856c-0.28555-0.5643-0.63664-1.044-1.0533-1.4392l0.30194-0.17885c0.42599 0.40346 0.78566 0.86724 1.079 1.3913zm2.8251 0.20381c-0.23094 0.58786-0.50323 0.8818-0.81687 0.8818-0.15604 0-0.31364-0.07972-0.4728-0.23917-0.21845-0.21352-0.36903-0.5428-0.45173-0.98786-0.0765-0.40901-0.11469-0.92963-0.11469-1.5619h0.3979c-5e-3 0.82911 0.0562 1.4426 0.18257 1.8405 0.12327 0.38544 0.27619 0.57816 0.45875 0.57816 0.17009 0 0.33159-0.24679 0.48451-0.74038zm1.505 0.1019c-0.2403-0.6045-0.57578-1.1626-1.0064-1.6742l0.33938-0.14766c0.43223 0.47001 0.7802 1.0177 1.0439 1.643zm3.5554-2.4145h0.36514v0.9629l1.0345-0.04368 0.014 0.28076-1.0486 0.04367c0.0652 0.83654 0.0393 0.90289 0.0332 0.91546l-0.39628-0.0408-2e-3 -0.85803-1.3646 0.05615v1.2645c0 0.19133 0.0897 0.30641 0.26917 0.34523 0.11703 0.02773 0.38152 0.04159 0.79346 0.04159 0.38698 0 0.77708-0.01803 1.1703-0.05407l0.014 0.33276c-0.39322 0.02773-0.78019 0.04159-1.1609 0.04159-0.59139 0-0.98071-0.04229-1.168-0.12686-0.19193-0.09012-0.28789-0.25372-0.28789-0.49081v-1.3373l-0.90581 0.03744-0.014-0.28492 0.91986-0.03744v-0.8402h0.36981v0.82565l1.3646-0.05823zm1.9497 3.2547c0.51181-1.0135 1.1126-2.1012 1.8023-3.2631l0.36981 0.1539c-0.38854 0.58925-0.73885 1.1667-1.0509 1.7324 0.25123-0.20936 0.48919-0.31404 0.71388-0.31404 0.25435 0 0.42209 0.11369 0.50323 0.34107 0.0406 0.11369 0.0632 0.31611 0.0679 0.60727 5e-3 0.36326 0.11469 0.54488 0.33002 0.54488 0.3074 0 0.5953-0.29601 0.86369-0.88804l0.30661 0.24957c-0.34953 0.65026-0.74275 0.97538-1.1797 0.97538-0.44939 0-0.67409-0.2766-0.67409-0.8298v-0.03327c0-0.44644-0.0991-0.66966-0.29725-0.66966-0.42443 0-0.89255 0.51092-1.4044 1.5327z" fill="#fff" stroke="#fff" stroke-width="1.8846" style="paint-order:stroke markers fill" aria-label="じゅじゅつかいせん"/>
  <path id="path5" d="m147.18 69.673h0.3979v2.3729c0 0.22322 0.0413 0.3889 0.12405 0.49705 0.10143 0.12755 0.28244 0.19133 0.54302 0.19133 0.5992 0 1.0829-0.3279 1.4512-0.9837l0.28321 0.25996c-0.17476 0.30225-0.41116 0.54765-0.7092 0.73622-0.31832 0.20797-0.65848 0.31196-1.0205 0.31196-0.7131 0-1.0696-0.32652-1.0696-0.97954zm2.0761 1.0107c-0.17789-0.23432-0.34563-0.42218-0.50323-0.5636l0.24342-0.1643c0.18413 0.1539 0.35812 0.33553 0.52196 0.54488zm0.4845-0.33276c-0.16384-0.21629-0.3386-0.39653-0.52429-0.54072l0.24108-0.17469c0.20441 0.15529 0.3862 0.33137 0.54536 0.52824zm1.4816 0.20797c-0.0983 0.41594-0.1498 0.78821-0.15448 1.1168 0.27307-0.5227 0.71232-0.83119 1.3178-0.92547l-5e-3 -0.07279c-0.0156-0.14974-0.0296-0.28007-0.0421-0.39098h0.33002c0.0218 0.2149 0.0351 0.36533 0.0398 0.4513 0.28243 0.01663 0.51258 0.09359 0.69047 0.23085 0.22002 0.16499 0.33002 0.38474 0.33002 0.65927 0 0.2662-0.10064 0.4818-0.30193 0.64679-0.19817 0.15944-0.4494 0.23917-0.75368 0.23917-0.0312 0-0.0554-0.0015-0.0726-0.0042-0.10923 0.26898-0.3035 0.47902-0.58281 0.63015l-0.25513-0.20797c0.24498-0.10676 0.41741-0.26482 0.51727-0.47417-0.23874-0.06378-0.46577-0.20797-0.68111-0.43258l0.213-0.22669c0.14823 0.19272 0.33314 0.32513 0.55472 0.39722 0.039-0.20936 0.0585-0.44506 0.0585-0.7071 0-0.13726-6e-3 -0.29948-0.0187-0.48665-0.35109 0.06378-0.66785 0.2558-0.95028 0.57608-0.21066 0.23847-0.31598 0.46793-0.31598 0.68838 0 0.07903 0.0125 0.18717 0.0375 0.32444l-0.32535 0.03743c-0.064-0.33553-0.096-0.65719-0.096-0.96498 0-0.35771 0.0414-0.74731 0.12405-1.1688zm1.505 0.43466c0.0125 0.2149 0.0187 0.39376 0.0187 0.53656 0 0.23847-0.0226 0.47279-0.0679 0.70294 0.15916-0.0042 0.29648-0.03951 0.41195-0.10607 0.1888-0.11646 0.28321-0.28284 0.28321-0.49913 0-0.37157-0.21534-0.58301-0.64601-0.63431zm2.1206-1.3206h0.39791v2.3729c0 0.22322 0.0413 0.3889 0.12405 0.49705 0.10143 0.12755 0.28243 0.19133 0.54302 0.19133 0.59919 0 1.0829-0.3279 1.4512-0.9837l0.28321 0.25996c-0.17477 0.30225-0.41117 0.54765-0.7092 0.73622-0.31832 0.20797-0.65849 0.31196-1.0205 0.31196-0.71311 0-1.0697-0.32652-1.0697-0.97954zm2.0761 1.0107c-0.17788-0.23432-0.34562-0.42218-0.50322-0.5636l0.24342-0.1643c0.18412 0.1539 0.35811 0.33553 0.52195 0.54488zm0.48451-0.33276c-0.16384-0.21629-0.33861-0.39653-0.5243-0.54072l0.24109-0.17469c0.20441 0.15529 0.38619 0.33137 0.54535 0.52824zm1.4816 0.20797c-0.0983 0.41594-0.1498 0.78821-0.15448 1.1168 0.27306-0.5227 0.71232-0.83119 1.3178-0.92547l-5e-3 -0.07279c-0.0156-0.14974-0.0296-0.28007-0.0421-0.39098h0.33003c0.0218 0.2149 0.0351 0.36533 0.0398 0.4513 0.28243 0.01663 0.51259 0.09359 0.69047 0.23085 0.22002 0.16499 0.33003 0.38474 0.33003 0.65927 0 0.2662-0.10065 0.4818-0.30194 0.64679-0.19817 0.15944-0.44939 0.23917-0.75367 0.23917-0.0312 0-0.0554-0.0015-0.0726-0.0042-0.10923 0.26898-0.3035 0.47902-0.58281 0.63015l-0.25512-0.20797c0.24498-0.10676 0.4174-0.26482 0.51727-0.47417-0.23874-0.06378-0.46578-0.20797-0.68111-0.43258l0.21299-0.22669c0.14824 0.19272 0.33314 0.32513 0.55472 0.39722 0.039-0.20936 0.0585-0.44506 0.0585-0.7071 0-0.13726-6e-3 -0.29948-0.0187-0.48665-0.3511 0.06378-0.66786 0.2558-0.95029 0.57608-0.21065 0.23847-0.31598 0.46793-0.31598 0.68838 0 0.07903 0.0125 0.18717 0.0374 0.32444l-0.32534 0.03743c-0.064-0.33553-0.096-0.65719-0.096-0.96498 0-0.35771 0.0413-0.74731 0.12406-1.1688zm1.505 0.43466c0.0125 0.2149 0.0187 0.39376 0.0187 0.53656 0 0.23847-0.0226 0.47279-0.0679 0.70294 0.15916-0.0042 0.29648-0.03951 0.41195-0.10607 0.18881-0.11646 0.28321-0.28284 0.28321-0.49913 0-0.37157-0.21533-0.58301-0.646-0.63431zm1.718-0.42634c1.058-0.25511 1.8553-0.38266 2.3921-0.38266 0.36825 0 0.67019 0.08111 0.90581 0.24333 0.29023 0.19826 0.43535 0.47625 0.43535 0.83396 0 0.4506-0.23796 0.80416-0.71388 1.0607-0.42755 0.22877-1.0252 0.36672-1.7929 0.41386l-0.18725-0.33275c1.5276-0.05962 2.2914-0.4402 2.2914-1.1418 0-0.24679-0.0897-0.44159-0.26916-0.5844-0.16541-0.13033-0.39712-0.19549-0.69516-0.19549-0.53522 0-1.2678 0.13934-2.1978 0.41802zm4.5688 0.10399c0.38698-0.05269 0.74977-0.09705 1.0884-0.1331 0.0999-0.33553 0.17008-0.64332 0.21065-0.92339l0.37918 0.06239c-0.0702 0.32305-0.14044 0.60034-0.21066 0.83188l0.0749-0.0042c0.0874-0.0028 0.16775-0.0042 0.24108-0.0042 0.51494 0 0.7724 0.28215 0.7724 0.84644 0 0.55043-0.0928 0.99063-0.27853 1.3206-0.11079 0.19549-0.28477 0.29324-0.52195 0.29324-0.20597 0-0.42833-0.06378-0.66707-0.19133l0.0187-0.36187c0.24654 0.14696 0.44315 0.22045 0.58983 0.22045 0.12171 0 0.21455-0.05823 0.27853-0.17469 0.13419-0.26066 0.20129-0.63362 0.20129-1.1189 0-0.3688-0.13731-0.5532-0.41194-0.5532-0.0921 0-0.22158 0.0055-0.38854 0.01664-0.0546 0.19133-0.15058 0.44575-0.28789 0.76325-0.23874 0.55459-0.48685 1.017-0.74431 1.3872l-0.33003-0.18717c0.33861-0.4409 0.6343-0.99757 0.88709-1.67 0.0125-0.02773 0.0445-0.11092 0.096-0.24956-0.19817 0.0194-0.50323 0.06586-0.91517 0.13934zm3.7332 1.0856c-0.28555-0.5643-0.63664-1.044-1.0533-1.4392l0.30194-0.17885c0.42599 0.40346 0.78566 0.86724 1.079 1.3913zm2.8251 0.20381c-0.23094 0.58786-0.50323 0.8818-0.81687 0.8818-0.15604 0-0.31364-0.07972-0.4728-0.23917-0.21845-0.21352-0.36903-0.5428-0.45173-0.98786-0.0765-0.40901-0.11469-0.92963-0.11469-1.5619h0.3979c-5e-3 0.82911 0.0562 1.4426 0.18257 1.8405 0.12327 0.38544 0.27619 0.57816 0.45875 0.57816 0.17009 0 0.33159-0.24679 0.48451-0.74038zm1.505 0.1019c-0.2403-0.6045-0.57578-1.1626-1.0064-1.6742l0.33938-0.14766c0.43223 0.47001 0.7802 1.0177 1.0439 1.643zm3.5554-2.4145h0.36514v0.9629l1.0345-0.04368 0.014 0.28076-1.0486 0.04367c0.0652 0.83654 0.0393 0.90289 0.0332 0.91546l-0.39628-0.0408-2e-3 -0.85803-1.3646 0.05615v1.2645c0 0.19133 0.0897 0.30641 0.26917 0.34523 0.11703 0.02773 0.38152 0.04159 0.79346 0.04159 0.38698 0 0.77708-0.01803 1.1703-0.05407l0.014 0.33276c-0.39322 0.02773-0.78019 0.04159-1.1609 0.04159-0.59139 0-0.98071-0.04229-1.168-0.12686-0.19193-0.09012-0.28789-0.25372-0.28789-0.49081v-1.3373l-0.90581 0.03744-0.014-0.28492 0.91986-0.03744v-0.8402h0.36981v0.82565l1.3646-0.05823zm1.9497 3.2547c0.51181-1.0135 1.1126-2.1012 1.8023-3.2631l0.36981 0.1539c-0.38854 0.58925-0.73885 1.1667-1.0509 1.7324 0.25123-0.20936 0.48919-0.31404 0.71388-0.31404 0.25435 0 0.42209 0.11369 0.50323 0.34107 0.0406 0.11369 0.0632 0.31611 0.0679 0.60727 5e-3 0.36326 0.11469 0.54488 0.33002 0.54488 0.3074 0 0.5953-0.29601 0.86369-0.88804l0.30661 0.24957c-0.34953 0.65026-0.74275 0.97538-1.1797 0.97538-0.44939 0-0.67409-0.2766-0.67409-0.8298v-0.03327c0-0.44644-0.0991-0.66966-0.29725-0.66966-0.42443 0-0.89255 0.51092-1.4044 1.5327z" style="paint-order:stroke markers fill" aria-label="じゅじゅつかいせん"/>
 </g>
</svg>